<?xml version="1.0" standalone="no"?>
<!DOCTYPE svg PUBLIC "-//W3C//DTD SVG 20010904//EN"
 "http://www.w3.org/TR/2001/REC-SVG-20010904/DTD/svg10.dtd">
<svg version="1.0" xmlns="http://www.w3.org/2000/svg"
 width="225.000000pt" height="225.000000pt" viewBox="0 0 225.000000 225.000000"
 preserveAspectRatio="xMidYMid meet">
<metadata>
Created by potrace 1.16, written by Peter Selinger 2001-2019
</metadata>
<g transform="translate(0.000000,225.000000) scale(0.100000,-0.100000)"
fill="#000000" stroke="none">
<path d="M934 2020 c-12 -4 -31 -21 -44 -37 -23 -28 -23 -28 -14 -258 4 -126
8 -286 9 -355 l0 -125 -47 -5 c-31 -4 -64 -17 -93 -38 -36 -26 -56 -32 -98
-33 -39 -1 -46 -3 -27 -8 23 -7 23 -8 5 -13 -12 -3 -9 -5 8 -3 32 2 44 -15 31
-42 -4 -10 -9 -25 -9 -33 -1 -8 -3 -21 -4 -28 0 -8 -6 -10 -14 -6 -8 5 -8 2 2
-9 17 -21 8 -22 -27 -1 -25 16 -25 15 3 -9 38 -32 28 -45 -11 -15 l-29 22 29
-32 c22 -24 27 -36 22 -57 -4 -17 -11 -23 -19 -18 -7 4 -6 0 2 -11 10 -12 11
-20 3 -28 -6 -6 -8 -17 -5 -24 8 -21 -7 -17 -36 8 l-26 23 26 -30 c23 -26 35
-65 20 -65 -3 0 -19 12 -35 27 l-31 28 31 -35 c40 -45 43 -93 4 -57 -11 9 -11
8 0 -7 8 -11 16 -31 16 -45 3 -46 4 -49 20 -55 15 -6 15 -4 3 11 -12 15 -12
16 6 10 19 -7 19 -6 2 7 -14 11 -15 19 -7 40 5 14 12 26 15 26 4 0 4 -4 0 -9
-3 -5 0 -13 6 -17 8 -4 9 -3 5 4 -4 7 -2 12 5 12 9 0 7 4 -3 13 -14 11 -16 23
-9 81 1 5 9 2 19 -5 14 -11 13 -10 -2 9 -20 23 -10 31 14 9 8 -6 6 -1 -5 12
-17 20 -17 23 -3 18 17 -6 19 8 5 31 -5 6 -4 12 2 12 5 0 8 9 6 20 -2 11 1 20
6 20 6 0 8 4 4 9 -3 5 -1 13 5 16 8 5 7 11 -1 21 -11 13 -5 19 15 15 5 -1 4 5
-4 13 -7 10 -8 16 -2 16 6 0 9 11 6 26 -3 14 -1 23 4 20 5 -3 9 1 9 9 0 8 -5
11 -11 8 -6 -4 -5 0 1 9 7 8 10 18 6 21 -3 4 1 7 10 7 11 0 15 -6 11 -17 -2
-10 1 -8 7 5 7 12 19 22 28 22 14 0 14 2 1 10 -10 6 -16 6 -18 0 -2 -6 -11
-10 -20 -10 -13 0 -13 2 3 14 10 7 28 12 39 9 20 -3 20 -3 1 5 -18 8 -16 11
19 26 43 18 92 23 66 6 -12 -8 -10 -10 10 -10 20 0 22 -2 10 -10 -8 -5 -10
-10 -4 -10 6 0 11 -15 11 -34 l0 -35 -45 25 c-24 14 -47 22 -50 19 -3 -3 1 -6
9 -6 8 -1 1 -5 -16 -9 l-30 -8 33 -1 c18 0 32 -6 32 -13 0 -10 3 -9 9 1 7 11
13 10 35 -4 25 -17 38 -44 14 -29 -9 5 -9 2 1 -9 17 -21 3 -22 -23 -2 -11 8
-25 15 -30 15 -6 0 3 -9 21 -20 33 -20 44 -66 13 -55 -13 5 -13 4 0 -7 19 -16
25 -62 7 -51 -7 4 -6 -1 2 -10 18 -23 7 -34 -16 -16 -17 13 -17 13 -3 -5 14
-18 24 -96 12 -96 -3 0 -21 12 -41 26 l-36 25 35 -30 c19 -17 38 -31 42 -31 4
0 8 -5 8 -11 0 -6 -20 1 -45 15 -25 15 -45 25 -45 22 0 -3 20 -17 43 -31 39
-22 44 -29 45 -65 l2 -41 -48 27 c-36 20 -41 21 -22 5 27 -22 21 -28 -11 -11
-10 6 -19 8 -19 6 0 -11 76 -43 89 -38 10 3 12 0 8 -11 -3 -9 3 -23 16 -33 12
-10 16 -12 10 -4 -19 21 -17 51 4 43 10 -4 14 -2 10 4 -4 6 -1 14 5 17 7 3 2
3 -12 0 l-25 -5 24 14 c20 12 21 15 7 20 -11 5 -15 3 -10 -5 4 -7 3 -8 -4 -4
-6 4 -9 13 -6 21 4 8 9 13 13 10 4 -2 8 2 8 10 0 8 -3 12 -7 10 -3 -2 -6 14
-6 36 0 30 3 38 13 34 8 -2 12 -1 8 4 -3 5 -2 11 2 14 5 2 3 3 -3 1 -6 -1 -11
4 -11 12 0 8 6 13 12 10 14 -5 14 39 1 51 -5 5 -6 1 -1 -7 5 -8 4 -12 0 -7
-11 10 -15 37 -6 37 4 0 12 -5 18 -11 9 -9 11 -7 8 7 -1 11 -7 18 -12 17 -5
-1 -10 7 -10 18 -2 18 0 19 15 7 15 -11 15 -10 -1 8 -17 20 -20 74 -5 74 5 0
6 -11 4 -25 -3 -13 -1 -27 4 -30 4 -2 6 15 4 40 -3 46 10 70 19 35 3 -11 11
-20 19 -20 10 0 10 2 -2 10 -27 17 -5 19 39 4 28 -9 60 -13 90 -9 44 6 45 5
21 -9 -14 -8 -20 -15 -14 -16 7 0 22 8 34 18 23 19 23 19 -45 21 -37 1 -88 9
-113 17 -37 13 -46 13 -53 2 -5 -7 -9 -11 -10 -8 -9 51 -9 54 1 40 8 -12 10
-11 10 8 0 13 -4 21 -8 18 -5 -3 -9 1 -9 9 0 8 4 15 9 15 5 0 6 5 3 10 -3 6
-2 10 4 10 5 0 13 -5 16 -10 3 -5 12 -10 18 -10 7 0 0 8 -15 18 -31 19 -40 59
-11 48 14 -6 14 -3 -3 15 -12 14 -13 19 -4 14 12 -6 13 -5 3 5 -10 11 -9 16 4
25 13 10 13 14 3 20 -9 5 -11 4 -6 -3 4 -7 3 -12 -2 -12 -5 0 -9 14 -8 30 0
17 5 29 12 26 6 -2 11 2 11 9 0 7 -6 11 -12 9 -8 -3 -11 9 -10 38 1 24 -3 49
-9 57 -9 12 -7 13 6 9 17 -7 20 14 3 29 -4 5 -5 1 0 -7 5 -9 4 -12 -1 -7 -11
11 -14 68 -2 61 4 -3 6 -9 3 -14 -3 -5 -1 -11 4 -14 13 -8 7 22 -7 36 -14 14
-16 32 -3 23 6 -3 8 4 5 17 -20 82 -21 99 -9 95 6 -3 12 1 12 8 0 8 -7 11 -16
7 -14 -5 -14 -3 -2 11 11 14 11 17 0 17 -11 0 -11 2 1 10 8 5 10 10 4 10 -6 0
-12 21 -13 47 -1 46 -1 46 19 28 11 -10 20 -25 19 -34 0 -10 -3 -8 -9 7 -19
45 -22 15 -5 -40 4 -11 9 -17 13 -14 3 3 13 -1 22 -9 21 -19 122 -33 118 -17
-2 6 5 17 15 24 17 13 17 14 -5 16 -13 2 -44 4 -70 5 -26 0 -45 3 -43 6 3 2
-3 10 -13 18 -16 14 -16 14 3 7 31 -11 124 -21 119 -12 -3 4 -20 8 -38 8 -18
0 -48 5 -66 12 -30 10 -32 12 -14 19 16 7 17 8 2 8 -14 1 -18 10 -18 46 0 40
3 45 26 51 16 4 22 10 16 16 -21 21 -83 -31 -77 -64 2 -10 0 -16 -5 -13 -10 6
-8 21 10 57 25 53 139 67 187 22 l28 -26 -37 22 c-25 14 -49 20 -70 17 l-33
-4 35 -2 c27 -1 31 -4 20 -11 -12 -8 -11 -10 7 -10 33 0 53 -11 53 -27 0 -12
3 -13 14 -4 10 9 15 8 19 -3 4 -9 -1 -19 -10 -24 -14 -8 -13 -10 1 -15 11 -5
15 -3 10 5 -4 7 -3 8 4 4 7 -4 12 -14 12 -22 0 -10 -5 -12 -12 -8 -8 5 -7 1 2
-10 8 -10 15 -27 17 -37 3 -17 0 -18 -20 -9 l-22 11 21 -18 c19 -17 31 -88 12
-77 -5 3 -6 9 -3 14 3 5 1 11 -4 14 -13 8 -7 -22 7 -36 16 -16 15 -31 0 -22
-10 6 -10 4 0 -7 18 -20 15 -33 -5 -18 -17 13 -17 13 0 -7 9 -11 17 -24 17
-29 0 -4 -8 -1 -17 6 -17 13 -17 13 0 -7 20 -24 24 -59 5 -48 -7 4 -4 -2 6
-14 19 -22 9 -31 -11 -11 -9 9 -11 7 -9 -7 2 -11 10 -18 18 -17 8 2 14 -6 15
-18 2 -18 0 -19 -15 -7 -15 11 -15 10 1 -8 9 -11 17 -24 17 -29 0 -4 -8 -1
-17 6 -10 7 -7 1 6 -14 14 -15 22 -27 18 -27 -4 0 -2 -11 3 -25 10 -27 2 -32
-20 -12 -12 10 -12 9 -3 -3 6 -8 11 -18 10 -22 -1 -3 2 -10 7 -15 5 -5 6 -2 1
6 -5 9 -4 12 2 8 13 -8 24 -47 14 -47 -4 0 -11 3 -17 8 -5 4 -1 -1 9 -10 10
-10 16 -22 13 -27 -4 -5 -2 -12 4 -16 5 -3 10 -11 10 -17 0 -6 -7 -5 -17 3
-17 13 -17 13 0 -7 9 -11 17 -24 17 -29 0 -4 -8 -1 -17 6 -17 13 -17 13 0 -7
9 -11 17 -24 17 -29 0 -4 -8 -1 -17 6 -15 11 -14 10 1 -9 13 -15 15 -22 6 -22
-10 0 -10 -3 0 -15 18 -21 4 -19 -28 5 -17 13 -49 22 -82 25 -30 2 -44 2 -30
-1 97 -18 131 -36 136 -71 2 -10 -3 -13 -14 -9 -15 5 -15 4 1 -8 19 -15 23
-31 5 -20 -7 4 -3 -4 9 -17 32 -35 16 -58 -23 -33 -25 15 -24 13 6 -13 19 -17
32 -34 28 -39 -5 -4 -18 1 -30 12 -23 19 -23 19 -6 -1 9 -11 16 -23 15 -27 -1
-3 2 -10 7 -15 5 -5 6 -3 2 5 -4 6 -3 12 3 12 6 0 10 -23 9 -54 l-2 -54 -25
15 c-24 14 -24 14 2 -7 16 -13 27 -31 27 -46 0 -28 -7 -29 -34 -9 -11 8 -25
15 -30 15 -6 0 5 -10 24 -21 32 -18 36 -25 37 -65 1 -24 -3 -44 -8 -44 -6 0
-7 4 -4 10 3 5 -17 21 -45 35 -53 27 -69 27 -22 0 l27 -16 -30 5 c-20 4 -10
-3 28 -21 54 -24 73 -43 45 -43 -7 -1 0 -8 15 -16 16 -9 31 -13 35 -10 3 3 0
6 -6 6 -7 0 -12 7 -12 15 0 9 6 12 18 8 15 -5 14 -4 -2 9 -13 11 -16 17 -7 22
6 4 8 13 4 19 -13 21 -14 49 -1 41 7 -5 8 -3 2 7 -14 23 -14 41 1 35 13 -5 14
4 2 34 -9 25 -5 90 6 83 6 -4 7 -1 1 8 -13 21 -14 39 -1 39 8 0 7 3 -1 9 -18
11 -17 20 5 36 17 13 17 14 1 20 -10 4 -18 11 -18 17 0 5 3 7 8 5 4 -3 7 15 7
39 0 24 -4 44 -10 44 -5 0 -3 5 5 10 8 5 10 10 5 10 -6 0 -11 9 -12 20 -2 21
12 25 76 20 38 -2 86 -18 61 -20 -8 0 4 -9 28 -20 23 -10 42 -24 42 -30 0 -7
8 -9 21 -5 15 5 19 4 15 -4 -4 -6 -1 -11 6 -11 9 0 9 -3 -2 -10 -13 -8 -12
-10 3 -10 9 0 17 -6 18 -12 0 -7 2 -21 4 -30 2 -10 2 -18 2 -18 -1 0 -17 4
-35 9 -17 5 -32 8 -32 6 0 -8 60 -35 60 -28 0 5 5 0 11 -10 14 -23 6 -31 -20
-22 -13 4 -18 11 -14 18 4 7 -1 6 -11 -2 -16 -14 -16 -16 9 -28 14 -8 29 -12
34 -9 4 3 8 -1 8 -9 0 -18 -11 -19 -40 -4 -21 10 -21 10 -3 -5 11 -9 23 -16
27 -16 4 0 6 -13 5 -30 -1 -25 -4 -29 -21 -25 -11 3 -8 -1 9 -11 l29 -16 -24
-14 c-13 -7 -18 -13 -11 -14 7 0 11 -4 8 -8 -2 -4 0 -14 6 -22 8 -12 9 -12 4
3 -3 9 -1 17 4 17 15 0 16 -44 0 -58 -13 -12 -13 -13 0 -9 12 4 16 -7 18 -51
l3 -56 -23 20 -23 19 19 -22 c16 -19 17 -27 7 -55 -10 -29 -9 -34 16 -58 l27
-25 -22 26 c-29 34 -28 48 2 20 l23 -22 7 60 c4 32 5 70 2 83 -13 65 -16 108
-6 108 6 0 8 -5 4 -12 -4 -6 -3 -8 4 -4 9 5 22 -22 46 -94 3 -10 5 -8 5 6 1
11 -14 52 -33 90 -25 49 -31 71 -23 76 8 5 5 8 -8 8 -19 1 -19 1 1 19 20 16
20 19 5 30 -13 9 3 11 79 7 69 -3 83 -2 50 4 -25 5 -64 9 -87 9 -32 1 -45 6
-54 22 -13 24 -4 35 31 42 23 4 22 4 -5 6 -23 1 -27 3 -15 11 12 8 10 10 -10
11 l-25 1 25 8 25 8 -25 2 c-14 1 -19 4 -12 7 18 7 15 23 -4 23 -10 0 2 15 30
35 25 20 46 38 46 41 0 3 -16 -7 -35 -22 -29 -22 -38 -24 -50 -14 -14 12 -14
15 3 34 21 22 52 80 52 93 -1 4 -12 -13 -26 -39 -24 -47 -46 -60 -60 -36 -5 7
-3 8 7 3 8 -5 5 1 -5 13 -20 23 -32 30 -21 12 3 -5 2 -10 -4 -10 -5 0 -13 5
-16 10 -4 6 -10 8 -14 6 -4 -3 -17 3 -29 14 -14 14 -23 16 -28 9 -5 -8 -9 -7
-15 3 -6 11 -22 14 -62 11 -45 -2 -57 1 -75 20 -19 21 -37 99 -24 111 3 3 14
-2 25 -11 14 -14 39 -18 104 -20 78 -2 85 0 94 20 8 19 9 18 4 -8 -4 -25 -3
-27 6 -12 14 23 2 79 -12 56 -7 -12 -9 -11 -9 2 0 20 -59 37 -165 46 -90 7
-82 -16 -94 263 -9 211 -18 251 -66 288 -21 17 -41 22 -84 21 -31 0 -66 -4
-77 -9z"/>
<path d="M1480 1420 c-24 -5 -9 -7 50 -6 62 1 84 -2 83 -11 -2 -7 3 -10 11 -7
8 3 20 -2 27 -11 8 -8 19 -21 25 -28 20 -23 35 -57 29 -67 -3 -6 -2 -10 4 -10
5 0 8 -8 7 -17 -2 -10 1 -21 6 -24 6 -4 11 -18 11 -33 1 -14 7 -26 12 -26 6 0
3 -5 -5 -10 -8 -5 -10 -10 -3 -10 6 0 16 -13 22 -30 7 -22 7 -30 -1 -30 -7 0
-5 -6 4 -12 21 -17 32 -65 15 -71 -7 -3 -5 -6 6 -6 20 -1 23 -17 5 -24 -9 -4
-8 -6 3 -6 9 -1 20 -16 27 -37 9 -32 9 -35 -6 -30 -13 5 -13 3 2 -9 13 -10 15
-15 6 -15 -9 0 -8 -5 6 -16 18 -14 18 -15 -6 -8 -24 6 -24 5 -6 -8 17 -14 18
-17 4 -36 -8 -12 -19 -19 -24 -14 -4 4 -2 -1 5 -10 11 -15 11 -18 -1 -18 -8 0
-19 5 -26 12 -14 14 -14 14 -16 -27 -1 -19 -6 -29 -15 -27 -11 2 -10 -3 3 -23
17 -26 9 -34 -12 -13 -7 7 -12 10 -13 7 0 -2 -2 -12 -4 -22 -3 -15 -1 -16 11
-6 11 9 14 8 14 -5 0 -9 -5 -16 -11 -16 -5 0 -8 -4 -4 -9 10 -16 -15 -23 -33
-10 -16 13 -16 12 -1 -6 17 -20 15 -45 -2 -45 -6 0 -8 4 -5 8 3 5 -1 9 -9 9
-13 0 -13 -3 0 -17 13 -14 13 -19 1 -36 -14 -19 -15 -19 -12 1 5 28 -3 38 -20
24 -13 -10 -12 -14 1 -29 17 -19 10 -54 -9 -43 -15 10 -40 13 -31 5 4 -4 12
-7 18 -7 18 0 14 -30 -3 -31 -8 0 -22 5 -30 10 -13 10 -13 9 -1 -6 7 -10 17
-15 22 -12 5 3 6 -2 3 -10 -3 -9 -11 -13 -17 -9 -5 3 -7 1 -4 -5 12 -18 -3
-41 -24 -37 -11 2 -17 0 -14 -6 4 -5 11 -7 16 -4 5 3 6 -1 3 -9 -3 -9 -10 -13
-15 -10 -5 3 -6 -3 -2 -12 5 -13 3 -15 -7 -9 -8 5 -11 4 -6 -3 8 -14 -11 -26
-44 -26 -24 -1 -84 -38 -76 -47 2 -2 -15 -5 -37 -6 -36 -2 -39 -1 -22 9 11 6
30 20 43 31 12 11 22 17 22 13 0 -4 9 -2 21 4 15 8 17 15 10 24 -7 8 -7 24 -1
46 6 21 6 39 -1 51 -13 26 -16 24 -15 -13 1 -18 -5 -33 -13 -36 -9 -3 -11 0
-6 8 6 9 3 10 -12 1 -11 -5 -28 -23 -38 -38 -9 -15 -31 -40 -49 -55 -17 -15
-26 -28 -19 -28 6 0 18 7 26 15 8 8 18 11 22 7 5 -4 4 -1 0 7 -6 11 -4 13 9 8
10 -4 20 -7 22 -7 3 0 -1 -6 -8 -14 -7 -7 -18 -12 -24 -9 -23 9 -24 -16 -2
-32 23 -17 23 -17 -12 -10 -19 4 -41 12 -48 18 -9 7 -11 6 -6 -6 4 -13 0 -15
-28 -10 -18 2 -43 11 -55 19 -22 14 -60 74 -47 74 4 0 1 7 -6 15 -7 8 -9 15
-5 15 4 0 1 8 -6 17 -12 15 -12 16 4 10 11 -4 16 -3 12 4 -4 5 -12 8 -18 6
-14 -4 -20 -47 -7 -47 6 0 9 -12 7 -27 -3 -20 -9 -27 -22 -25 -10 2 -14 -1
-10 -7 8 -14 -36 -31 -79 -31 -27 0 -36 7 -56 40 -14 22 -28 40 -32 40 -4 0
-5 8 -2 18 5 14 4 15 -5 2 -11 -16 7 -53 36 -77 8 -6 12 -16 8 -22 -4 -7 6
-11 27 -12 19 -1 25 -3 15 -6 -36 -9 -89 8 -127 43 -21 19 -40 31 -42 27 -3
-4 -3 -2 -1 6 2 7 -2 20 -9 28 -17 21 -18 41 -2 47 9 4 14 -2 14 -17 0 -24 38
-93 46 -84 3 3 -2 17 -12 32 -9 14 -23 50 -30 78 -9 40 -22 44 -15 4 1 -4 -9
-2 -21 4 -21 11 -22 11 -9 -4 12 -15 10 -18 -20 -24 -32 -6 -33 -7 -9 -13 36
-9 38 -37 3 -43 l-28 -4 28 -2 c42 -2 22 -21 -21 -21 -49 1 -109 29 -149 71
-38 40 -53 77 -53 128 0 25 -5 38 -14 38 -9 0 -13 -10 -10 -34 2 -21 -1 -33
-9 -33 -7 0 -6 -4 3 -10 13 -8 13 -10 -1 -10 -21 0 -77 63 -83 93 -3 12 -7 31
-9 42 -3 13 -5 9 -6 -10 0 -16 11 -50 24 -74 16 -27 19 -39 10 -31 -22 19 -42
59 -50 103 -8 42 21 137 41 137 7 0 16 4 19 10 3 5 0 7 -9 4 -21 -8 -14 23 10
41 10 8 15 15 9 15 -5 0 -3 5 5 11 12 8 11 9 -6 4 -19 -5 -21 -2 -16 22 3 16
10 31 16 35 8 6 8 8 0 8 -16 0 -5 52 14 68 13 10 13 12 1 12 -12 0 -12 2 1 10
10 6 11 10 3 10 -7 0 -13 5 -13 11 0 5 4 8 9 4 5 -3 13 0 17 6 4 8 3 9 -5 5
-8 -5 -11 2 -9 23 1 17 6 31 11 31 4 0 6 3 4 8 -2 4 4 15 14 24 12 12 19 13
23 5 3 -9 5 -8 5 1 1 7 5 11 9 8 4 -2 14 -1 22 5 11 6 8 9 -12 9 -20 0 -26 4
-22 15 4 8 2 15 -2 15 -39 -1 -70 -81 -89 -228 -9 -67 -27 -159 -40 -204 -27
-89 -31 -132 -14 -175 14 -37 54 -79 92 -94 16 -7 55 -38 86 -70 64 -65 115
-85 193 -75 42 6 51 3 93 -26 44 -31 52 -33 129 -33 61 0 89 4 108 17 17 11
29 14 33 8 4 -6 24 -19 45 -30 77 -40 225 -20 308 40 56 40 93 93 197 284 48
88 103 182 122 207 18 26 33 57 33 69 0 48 -117 445 -150 511 -37 71 -106 93
-220 69z"/>
</g>
</svg>
